<?xml version="1.0" encoding="utf-8" ?>
<svg baseProfile="full" height="100%" version="1.1" viewBox="0,0,1000,120" width="100%" xmlns="http://www.w3.org/2000/svg" xmlns:ev="http://www.w3.org/2001/xml-events" xmlns:xlink="http://www.w3.org/1999/xlink"><defs /><rect fill="white" height="120" width="1000" x="0" y="0" /><path d="M0,0 M482.2560119628906,59.202003479003906 L482.8519592285156,58.74730682373047 L483.9629821777344,57.86857986450195 L485.5606689453125,56.565460205078125 L487.44830322265625,54.99480438232422 L489.4879150390625,53.28476333618164 L491.54248046875,51.57577896118164 L493.52264404296875,49.96588897705078 L495.3514709472656,48.52483367919922 L496.9720153808594,47.30500030517578 L498.35125732421875,46.348941802978516 L499.4521789550781,45.660064697265625 L500.25506591796875,45.21931076049805 L500.7516174316406,45.0 L500.9437561035156,45.0298957824707 L500.8251647949219,45.39567565917969 L500.3820495605469,46.23212432861328 L499.6040344238281,47.60960388183594 L498.53155517578125,49.494529724121094 L497.244384765625,51.74363327026367 L495.86083984375,54.19279479980469 L494.49053955078125,56.68053436279297 L493.23516845703125,59.09839630126953 L492.1558532714844,61.329917907714844 L491.3059997558594,63.254493713378906 L490.70294189453125,64.75183868408203 L490.3407287597656,65.77410888671875 L490.1667785644531,66.33684539794922 L490.1165771484375,66.56575775146484 M501.91058349609375,49.44916534423828 L502.4188232421875,49.21720886230469 L503.34521484375,48.92051315307617 L504.63836669921875,48.66288757324219 L506.0824279785156,48.567474365234375 L507.53173828125,48.64000701904297 L508.8645324707031,48.863075256347656 L510.0101623535156,49.18893814086914 L510.9341125488281,49.59925842285156 L511.6111755371094,50.07884979248047 L512.0040283203125,50.61946487426758 L512.060546875,51.243377685546875 L511.7235412597656,51.979713439941406 L510.93280029296875,52.8429069519043 L509.6784362792969,53.84062194824219 L508.024658203125,54.97608184814453 L506.1080627441406,56.2404670715332 L504.1164855957031,57.62882995605469 L502.2446594238281,59.09484100341797 L500.6339111328125,60.56660842895508 L499.3593444824219,61.948482513427734 L498.4564514160156,63.16218566894531 L497.944580078125,64.16664123535156 L497.8463134765625,64.96489715576172 L498.1761779785156,65.55292510986328 L498.9305114746094,65.9422607421875 L500.047119140625,66.11649322509766 L501.4250183105469,66.07720947265625 L502.93536376953125,65.87029266357422 L504.4267578125,65.56559753417969 L505.7608337402344,65.22599029541016 L506.83660888671875,64.9095458984375 L507.6095886230469,64.61805725097656 L508.10845947265625,64.34211730957031 L508.411376953125,64.08100891113281 L508.57513427734375,63.87450408935547 L508.65557861328125,63.743568420410156 M516.484619140625,53.13037872314453 L516.8649291992188,52.93021011352539 L517.6268920898438,52.68067932128906 L518.796142578125,52.489524841308594 L520.2626953125,52.48194122314453 L521.9132690429688,52.6656379699707 L523.5869750976562,52.99775695800781 L525.130615234375,53.389251708984375 L526.419921875,53.77528762817383 L527.3506469726562,54.122589111328125 L527.8259887695312,54.42191696166992 L527.7648315429688,54.69657897949219 L527.1115112304688,54.99801254272461 L525.8714599609375,55.35861587524414 L524.1843872070312,55.80595397949219 L522.2764892578125,56.36528778076172 L520.39501953125,57.03830337524414 L518.7650756835938,57.8193244934082 L517.53369140625,58.707157135009766 L516.7808837890625,59.686248779296875 L516.5689086914062,60.7481803894043 L516.912353515625,61.89130401611328 L517.769287109375,63.104286193847656 L519.0252685546875,64.36709594726562 L520.4624633789062,65.64347076416016 L521.8209838867188,66.88017272949219 L522.8615112304688,68.02999877929688 L523.39599609375,69.06486511230469 L523.3271484375,69.96528625488281 L522.647216796875,70.73870849609375 L521.4063720703125,71.38229370117188 L519.7322998046875,71.885498046875 L517.8211669921875,72.24612426757812 L515.8804321289062,72.4605712890625 L514.11669921875,72.51460266113281 L512.6641235351562,72.42721557617188 L511.635498046875,72.1811752319336 L511.0845947265625,71.78512573242188 L511.00494384765625,71.28630065917969 L511.1836242675781,70.83683776855469 L511.4256896972656,70.52841186523438 M530.2588500976562,58.15270233154297 L530.14599609375,58.37462615966797 L529.8953857421875,58.88237380981445 L529.4714965820312,59.73208999633789 L528.890869140625,60.872032165527344 L528.1947021484375,62.18842697143555 L527.4608154296875,63.54055404663086 L526.8046875,64.80583953857422 L526.3441162109375,65.89481353759766 L526.1775512695312,66.75372314453125 L526.380859375,67.36075592041016 L526.978515625,67.70293426513672 L527.9720458984375,67.78099060058594 L529.3306884765625,67.60567474365234 L530.9789428710938,67.21761322021484 L532.788330078125,66.68083190917969 L534.5819091796875,66.08163452148438 L536.1669311523438,65.5063705444336 L537.4102172851562,65.02213287353516 L538.2498779296875,64.66277313232422 L538.7146606445312,64.4402847290039 L538.8984375,64.33098602294922 L538.908935546875,64.29312896728516 L538.8310546875,64.28556823730469 L538.7313842773438,64.27822875976562 L538.6402587890625,64.25938415527344 L538.5651245117188,64.22992706298828 L538.5092163085938,64.1934585571289 L538.4784545898438,64.15357971191406 L538.4588623046875,64.12446594238281 L538.4519653320312,64.1063003540039 L538.4488525390625,64.09717559814453 L538.4447631835938,64.08985137939453 L538.437744140625,64.07869720458984 L538.4334716796875,64.0554428100586 L538.4271850585938,64.03451538085938 L538.42822265625,64.0123291015625 L538.4296264648438,63.98973846435547 L538.4342041015625,63.96627426147461 L538.4388427734375,63.94703674316406 L538.4371948242188,63.92768859863281 L538.4215087890625,63.91307067871094 L538.3988647460938,63.90150833129883 L538.36865234375,63.89033508300781 L538.341064453125,63.8685417175293 L538.3212890625,63.841835021972656 L538.3082885742188,63.81305694580078 L538.2991333007812,63.788875579833984 L538.3001708984375,63.776466369628906 L538.3060302734375,63.77140426635742 L538.3148803710938,63.75844192504883 L538.3189086914062,63.734771728515625 L538.3128051757812,63.701045989990234 L538.2958374023438,63.66395950317383 L538.2822875976562,63.63431167602539 L538.2745971679688,63.61659622192383 L538.2750244140625,63.60893249511719 M539.8056640625,57.01591110229492 L539.8120727539062,57.0159797668457 L539.8268432617188,57.01165771484375 L539.8452758789062,56.99933624267578 L539.8627319335938,56.975589752197266 L539.87744140625,56.96123123168945 L539.8870239257812,56.94495391845703 L539.887451171875,56.927490234375 L539.8834228515625,56.90577697753906 L539.872802734375,56.869842529296875 L539.864013671875,56.81975173950195 L539.8633422851562,56.770057678222656 L539.866455078125,56.719512939453125 L539.8731689453125,56.67247772216797 L539.8759765625,56.617950439453125 L539.8720092773438,56.549129486083984 L539.8646240234375,56.476593017578125 L539.8566284179688,56.40652084350586 L539.8448486328125,56.34793472290039 L539.8419189453125,56.308685302734375 L539.84423828125,56.2826042175293 L539.8495483398438,56.26567840576172 L539.8489990234375,56.264583587646484 L539.8392333984375,56.26593017578125 L539.8167114257812,56.266109466552734 L539.7945556640625,56.26506805419922 L539.77685546875,56.26280212402344 L539.7672729492188,56.25182342529297 L539.7606811523438,56.23817443847656 L539.7659912109375,56.21906661987305 L539.7760620117188,56.199851989746094 L539.7941284179688,56.18589782714844 L539.8163452148438,56.1826286315918 L539.8372802734375,56.17402648925781 L539.84716796875,56.163124084472656 L539.8504638671875,56.14902114868164 L539.836669921875,56.13671112060547 L539.812744140625,56.12517547607422 L539.7898559570312,56.121646881103516 L539.7738037109375,56.11110305786133 L539.7684936523438,56.09999084472656 L539.7772827148438,56.087059020996094 L539.7890625,56.075706481933594 L539.8040771484375,56.065589904785156 L539.8250732421875,56.0653190612793 L539.839599609375,56.056339263916016 L539.8447875976562,56.04174041748047 L539.8458251953125,56.01245880126953 L539.8419799804688,55.97149658203125 L539.8441772460938,55.93724060058594 L539.8485717773438,55.90802001953125 L539.8487548828125,55.87734603881836 L539.8450927734375,55.854766845703125 L539.8429565429688,55.82524490356445 L539.8468017578125,55.802459716796875 L539.8618774414062,55.80244445800781 L539.87451171875,55.80708312988281 L539.885498046875,55.8154296875 L539.886474609375,55.819122314453125 L539.878662109375,55.806983947753906 L539.8697509765625,55.789974212646484 L539.8634643554688,55.7733154296875 L539.8646240234375,55.75778579711914 L539.87646484375,55.75105285644531 L539.8857421875,55.74680709838867 L539.88671875,55.7479248046875 L539.875,55.7457389831543 L539.85009765625,55.736572265625 L539.8270874023438,55.727294921875 L539.8152465820312,55.724578857421875 L539.818115234375,55.73329162597656 L539.8292846679688,55.75750732421875 L539.8384399414062,55.782222747802734 L539.8429565429688,55.80631637573242 L539.8488159179688,55.83052444458008 L539.8582763671875,55.850433349609375 L539.870849609375,55.859710693359375 L539.8705444335938,55.85300827026367 L539.8560180664062,55.82575988769531 L539.8311767578125,55.79261779785156 L539.810546875,55.765621185302734 L539.80712890625,55.75438690185547 L539.8274536132812,55.75985336303711 L539.8604125976562,55.77680206298828 L539.9015502929688,55.79729461669922 L539.9351806640625,55.8173713684082 L539.9496459960938,55.82068634033203 L539.9501953125,55.813438415527344 L539.9495849609375,55.80571746826172 L539.955078125,55.806190490722656 L539.9691772460938,55.816368103027344 L539.9822387695312,55.82831573486328 L539.9801635742188,55.824188232421875 L539.9695434570312,55.81191635131836 L539.963134765625,55.80048370361328 L539.96875,55.800880432128906 L539.98486328125,55.81365966796875 L540.001708984375,55.82820129394531 L540.011474609375,55.841156005859375 L540.0250244140625,55.851356506347656 L540.0518188476562,55.858909606933594 L540.0966796875,55.86905288696289 L540.1486206054688,55.8767204284668 L540.18505859375,55.86937713623047 L540.1921997070312,55.8529052734375 L540.187744140625,55.83258819580078 L540.1843872070312,55.81755065917969 L540.1943359375,55.814605712890625 L540.2076416015625,55.81243133544922 L540.207275390625,55.79595947265625 L540.1886596679688,55.769535064697266 L540.1717529296875,55.7405891418457 L540.168701171875,55.72012710571289 L540.1876220703125,55.71467590332031 L540.2139282226562,55.715572357177734 L540.2422485351562,55.72241973876953 L540.2694091796875,55.734073638916016 L540.29052734375,55.737701416015625 L540.307373046875,55.73357009887695 L540.3175048828125,55.71804428100586 L540.317626953125,55.69580841064453 L540.3189697265625,55.682674407958984 L540.3222045898438,55.68238830566406 L540.323974609375,55.68587875366211 L540.3302612304688,55.69362258911133 L540.3346557617188,55.69085693359375 L540.3389892578125,55.68107986450195 L540.34375,55.67033004760742 L540.340576171875,55.6605224609375 L540.3318481445312,55.65037536621094 L540.3306274414062,55.643924713134766 L540.3385009765625,55.6368522644043 L540.3585205078125,55.6329460144043 L540.3892822265625,55.634361267089844 L540.4165649414062,55.63813400268555 L540.4348754882812,55.633087158203125 L540.4511108398438,55.61946487426758 L540.4655151367188,55.601627349853516 L540.4754028320312,55.58382797241211 L540.4868774414062,55.57236099243164 L540.4931640625,55.56475067138672 L540.4935913085938,55.54732894897461 L540.4903564453125,55.524845123291016 L540.4888916015625,55.50201416015625 L540.4920043945312,55.48439407348633 L540.5042724609375,55.47702407836914 L540.5244750976562,55.473548889160156 L540.5509033203125,55.464927673339844 L540.575439453125,55.45866394042969 L540.6002197265625,55.452125549316406 L540.6245727539062,55.44643020629883 L540.6464233398438,55.44890213012695 L540.670654296875,55.45737075805664 L540.6998901367188,55.474735260009766 L540.7307739257812,55.49870681762695 L540.7635498046875,55.521095275878906 L540.7906494140625,55.5329704284668 L540.8148803710938,55.54310607910156 L540.8382568359375,55.54962158203125 L540.862060546875,55.55394744873047 L540.8860473632812,55.55261993408203 L540.9144287109375,55.55116653442383 L540.9412231445312,55.545616149902344 L540.9716186523438,55.542694091796875 L540.9906616210938,55.52452850341797 L540.9963989257812,55.484676361083984 L540.9916381835938,55.43347930908203 L540.9888305664062,55.39176940917969 L540.9977416992188,55.37162780761719 L541.0220947265625,55.37622833251953 L541.0458374023438,55.37855529785156 L541.0682373046875,55.36918258666992 L541.0822143554688,55.34896469116211 L541.0867309570312,55.325382232666016 L541.0902099609375,55.311309814453125 L541.0906372070312,55.2978630065918 L541.0968017578125,55.28383255004883 L541.1170654296875,55.27225875854492 L541.143798828125,55.26023483276367 L541.1679077148438,55.24586486816406 L541.1874389648438,55.23438262939453 L541.1928100585938,55.21120834350586 L541.2026977539062,55.19335174560547 L541.22216796875,55.18690490722656 L541.244140625,55.185306549072266 L541.2664794921875,55.18803787231445 L541.2868041992188,55.19017028808594 L541.300048828125,55.188934326171875 L541.3164672851562,55.190189361572266 L541.3289184570312,55.18966293334961 L541.328125,55.18165969848633 L541.3194580078125,55.17150115966797 L541.31103515625,55.15952682495117 L541.3098754882812,55.1550178527832 L541.3184814453125,55.153709411621094 L541.32470703125,55.14423751831055 L541.3203735351562,55.12358856201172 L541.3106079101562,55.093170166015625 L541.3062744140625,55.0614013671875 L541.31201171875,55.034645080566406 L541.3255615234375,55.01388168334961 L541.3382568359375,54.997955322265625 L541.3464965820312,54.98665237426758 L541.3497314453125,54.976627349853516 L541.3587646484375,54.97200012207031 L541.3775634765625,54.96702575683594 L541.4037475585938,54.95883560180664 L541.4320678710938,54.95505142211914 L541.4571533203125,54.951873779296875 L541.4692993164062,54.944549560546875 L541.479248046875,54.94181823730469 L541.4904174804688,54.94205093383789 L541.5030517578125,54.94305419921875 L541.5162963867188,54.95203399658203 L541.5298461914062,54.95615005493164 L541.5443725585938,54.95138931274414 L541.5633544921875,54.93775939941406 L541.5841674804688,54.920963287353516 L541.6072998046875,54.90217971801758 L541.6292114257812,54.88593292236328 L541.65380859375,54.87453079223633 L541.6807861328125,54.86933898925781 L541.7010498046875,54.85993576049805 L541.711181640625,54.852088928222656 L541.7166137695312,54.84364318847656 L541.7207641601562,54.838077545166016 L541.7294311523438,54.83513641357422 L541.7427368164062,54.82998275756836 L541.757080078125,54.813846588134766 L541.769287109375,54.790889739990234 L541.7828979492188,54.77008819580078 L541.7919921875,54.75604248046875 L541.7987670898438,54.741275787353516 L541.8034057617188,54.72834014892578 L541.806640625,54.71617126464844 " fill="none" stroke="black" stroke-linecap="round" stroke-width="1" /></svg>