<?xml version="1.0" encoding="utf-8" ?>
<svg baseProfile="full" height="100%" version="1.1" viewBox="0,0,1000,120" width="100%" xmlns="http://www.w3.org/2000/svg" xmlns:ev="http://www.w3.org/2001/xml-events" xmlns:xlink="http://www.w3.org/1999/xlink"><defs /><rect fill="white" height="120" width="1000" x="0" y="0" /><path d="M0,0 M433.880126953125,62.39270782470703 L434.31878662109375,61.73163986206055 L435.1175231933594,60.5710334777832 L436.238037109375,58.96634292602539 L437.5299377441406,57.13821029663086 L438.9147033691406,55.184471130371094 L440.30859375,53.211448669433594 L441.6519775390625,51.30261993408203 L442.86761474609375,49.588497161865234 L443.8608093261719,48.1774787902832 L444.5843505859375,47.13185119628906 L445.0386047363281,46.4737663269043 L445.2374572753906,46.22481155395508 L445.22930908203125,46.43783187866211 L445.0345153808594,47.22437286376953 L444.64495849609375,48.67121887207031 L444.0738830566406,50.74877166748047 L443.37127685546875,53.298118591308594 L442.59722900390625,56.084041595458984 L441.8565368652344,58.87697982788086 L441.227783203125,61.52140808105469 L440.7581787109375,63.895263671875 L440.4515380859375,65.88980865478516 L440.287109375,67.44190979003906 L440.2395324707031,68.44575500488281 L440.29425048828125,68.86308288574219 L440.4447021484375,68.7530746459961 L440.6195068359375,68.39399719238281 L440.7589416503906,68.03006744384766 M447.884521484375,50.56385803222656 L448.29833984375,50.164424896240234 L449.0005798339844,49.58637237548828 L449.9335021972656,48.9539794921875 L450.9397888183594,48.466949462890625 L451.9591064453125,48.1801872253418 L452.9222106933594,48.1142463684082 L453.7953796386719,48.2635612487793 L454.51513671875,48.648380279541016 L455.02734375,49.268245697021484 L455.28863525390625,50.13672637939453 L455.2532043457031,51.26698684692383 L454.8794860839844,52.65001678466797 L454.1704406738281,54.26960754394531 L453.1402282714844,56.07697296142578 L451.8529052734375,58.005958557128906 L450.4223327636719,59.99396514892578 L448.9726257324219,61.954978942871094 L447.6429138183594,63.78718566894531 L446.568359375,65.37832641601562 L445.80889892578125,66.61585235595703 L445.3849182128906,67.44335174560547 L445.2955322265625,67.87317657470703 L445.5098571777344,67.95112609863281 L446.0192565917969,67.74947357177734 L446.8138732910156,67.33953857421875 L447.8358154296875,66.78800964355469 L449.0091247558594,66.19317626953125 L450.2558288574219,65.65567016601562 L451.4731750488281,65.24175262451172 L452.58172607421875,64.96825408935547 L453.5199279785156,64.83007049560547 L454.23077392578125,64.79741668701172 L454.69500732421875,64.84746551513672 L454.9447326660156,64.96697235107422 L455.03887939453125,65.09820556640625 L455.051513671875,65.19314575195312 M458.58612060546875,50.653076171875 L458.91259765625,50.316017150878906 L459.5763854980469,49.79031753540039 L460.61175537109375,49.17585754394531 L461.934814453125,48.656463623046875 L463.44287109375,48.3029899597168 L464.9972839355469,48.14605712890625 L466.45343017578125,48.171573638916016 L467.66448974609375,48.337867736816406 L468.50634765625,48.60630416870117 L468.87225341796875,48.96099853515625 L468.69158935546875,49.41079330444336 L467.9531555175781,49.994140625 L466.7185974121094,50.74801254272461 L465.1375732421875,51.64849090576172 L463.4466857910156,52.65610122680664 L461.8859558105469,53.70223617553711 L460.6709899902344,54.73236083984375 L459.93084716796875,55.712432861328125 L459.7193603515625,56.62631607055664 L460.0461730957031,57.45222091674805 L460.8960266113281,58.200931549072266 L462.1954345703125,58.88222122192383 L463.81671142578125,59.53086471557617 L465.5459899902344,60.17243957519531 L467.1426086425781,60.8267707824707 L468.3953857421875,61.509986877441406 L469.1500244140625,62.25666809082031 L469.32220458984375,63.09209442138672 L468.90594482421875,64.03164672851562 L467.9667663574219,65.05204772949219 L466.6280822753906,66.08839416503906 L465.08172607421875,67.06588745117188 L463.51873779296875,67.90898132324219 L462.1063537597656,68.553466796875 L460.95635986328125,68.9761734008789 L460.150390625,69.16527557373047 L459.7034606933594,69.13825988769531 L459.5958557128906,68.94761657714844 L459.67791748046875,68.71781921386719 L459.812255859375,68.5362548828125 M486.062744140625,48.3819580078125 L485.9956359863281,48.41883850097656 L485.9124755859375,48.618560791015625 L485.83416748046875,49.118873596191406 L485.7749328613281,50.02305603027344 L485.7102966308594,51.3460807800293 L485.6045837402344,53.0490608215332 L485.42327880859375,55.04723358154297 L485.15087890625,57.24693298339844 L484.7978515625,59.56107711791992 L484.3835144042969,61.88166427612305 L483.967529296875,64.0621337890625 L483.5969543457031,65.94068908691406 L483.30963134765625,67.38970947265625 L483.1194763183594,68.34589385986328 L483.02862548828125,68.79052734375 L483.0118713378906,68.712158203125 L483.0799865722656,68.05596923828125 L483.23907470703125,66.75071716308594 L483.50640869140625,64.81917572021484 L483.90167236328125,62.40011978149414 L484.4234313964844,59.700714111328125 L485.0347900390625,56.94206619262695 L485.7035827636719,54.29640579223633 L486.3725280761719,51.89910125732422 L486.98052978515625,49.88032913208008 L487.49530029296875,48.34074401855469 L487.895751953125,47.32380676269531 L488.1750793457031,46.84383773803711 L488.355224609375,46.91765213012695 L488.4535827636719,47.60999298095703 L488.47210693359375,48.981204986572266 L488.42938232421875,51.00017547607422 L488.35687255859375,53.50398635864258 L488.3114929199219,56.24653244018555 L488.360107421875,58.96403884887695 L488.5477600097656,61.44160461425781 L488.871337890625,63.52265167236328 L489.287109375,65.10444641113281 L489.7406005859375,66.1227798461914 L490.2018127441406,66.5420150756836 L490.6636657714844,66.33073425292969 L491.14605712890625,65.45184326171875 L491.6884765625,63.899227142333984 L492.3163146972656,61.75553512573242 L493.03143310546875,59.197139739990234 L493.81658935546875,56.461387634277344 L494.6380615234375,53.77497482299805 L495.4482116699219,51.31470489501953 L496.1946105957031,49.2010612487793 L496.824951171875,47.514434814453125 L497.2948913574219,46.28809356689453 L497.5841979980469,45.57320022583008 L497.7176818847656,45.358184814453125 L497.741943359375,45.578800201416016 L497.71612548828125,45.97311019897461 L497.6852111816406,46.326499938964844 M496.095947265625,61.38692092895508 L496.3602294921875,61.25197219848633 L496.89678955078125,60.88140869140625 L497.73077392578125,60.202354431152344 L498.7776184082031,59.21953201293945 L499.94293212890625,58.01912307739258 L501.0852966308594,56.713626861572266 L502.0787353515625,55.42558288574219 L502.8172302246094,54.25675964355469 L503.22967529296875,53.3035888671875 L503.26751708984375,52.640838623046875 L502.918212890625,52.33866882324219 L502.16748046875,52.463623046875 L501.06341552734375,53.1010856628418 L499.6907653808594,54.303367614746094 L498.1930236816406,56.05560302734375 L496.745361328125,58.23599624633789 L495.5313720703125,60.61854553222656 L494.70172119140625,62.936668395996094 L494.3792724609375,64.95894622802734 L494.5978088378906,66.51039123535156 L495.3255615234375,67.508056640625 L496.4580383300781,67.92992401123047 L497.8504943847656,67.80345916748047 L499.3948059082031,67.1276626586914 L500.9704895019531,65.99197387695312 L502.46112060546875,64.54161834716797 L503.6009521484375,63.239410400390625 L504.28125,62.36543655395508 M507.9093933105469,54.23182678222656 L507.96868896484375,54.160552978515625 L508.0150146484375,54.217403411865234 L508.00970458984375,54.59815216064453 L507.88616943359375,55.496421813964844 L507.6310119628906,56.94974136352539 L507.2549743652344,58.88540267944336 L506.806640625,61.12471008300781 L506.36749267578125,63.42334747314453 L506.04937744140625,65.52561950683594 L505.91339111328125,67.2254638671875 L505.9911193847656,68.36944580078125 L506.267333984375,68.8805923461914 L506.73248291015625,68.72919464111328 L507.39996337890625,67.88968658447266 L508.2691650390625,66.39461517333984 L509.3057861328125,64.39997863769531 L510.43170166015625,62.178863525390625 L511.5185546875,60.060813903808594 L512.4427490234375,58.319061279296875 L513.1347045898438,57.0660400390625 L513.5528564453125,56.303829193115234 L513.7293701171875,56.00998306274414 L513.7180786132812,56.2132568359375 L513.5472412109375,56.993072509765625 L513.24853515625,58.39838790893555 L512.88232421875,60.33346939086914 L512.5281372070312,62.583900451660156 L512.3187255859375,64.8566665649414 L512.3558349609375,66.87813568115234 L512.6626586914062,68.46089172363281 L513.2032470703125,69.51313781738281 L513.9056396484375,69.99344635009766 L514.7144775390625,69.89352416992188 L515.6119995117188,69.21380615234375 L516.5695190429688,67.98711395263672 L517.5332641601562,66.31102752685547 L518.4188232421875,64.34234619140625 L519.14892578125,62.26375961303711 L519.6965942382812,60.23298645019531 L520.0962524414062,58.36123275756836 L520.4065551757812,56.72052001953125 L520.68115234375,55.360904693603516 L520.9583740234375,54.33262634277344 L521.2543334960938,53.662261962890625 L521.5497436523438,53.324520111083984 L521.8255615234375,53.25247573852539 L522.0319213867188,53.314632415771484 L522.1458740234375,53.39617156982422 M536.7691650390625,49.3421630859375 L536.7376098632812,49.314483642578125 L536.7078247070312,49.4494514465332 L536.6710205078125,49.92897415161133 L536.5947265625,50.9150276184082 L536.4232177734375,52.4325065612793 L536.11083984375,54.41154861450195 L535.6574096679688,56.719520568847656 L535.1261596679688,59.197181701660156 L534.5780029296875,61.6717529296875 L534.0814819335938,63.97311019897461 L533.6903686523438,65.94470977783203 L533.434814453125,67.41551208496094 L533.3265991210938,68.2881851196289 L533.3465576171875,68.5656967163086 L533.419677734375,68.4756851196289 L533.4915771484375,68.26380920410156 M533.5498046875,48.875221252441406 L533.8838500976562,48.41291809082031 L534.5502319335938,47.687625885009766 L535.5809936523438,46.820743560791016 L536.8956909179688,46.039154052734375 L538.4015502929688,45.43252944946289 L539.9678955078125,45.078468322753906 L541.447509765625,45.0 L542.7330932617188,45.22229766845703 L543.7403564453125,45.74000930786133 L544.3984985351562,46.535301208496094 L544.6304931640625,47.57323455810547 L544.3621826171875,48.81201934814453 L543.566650390625,50.186397552490234 L542.3135375976562,51.63471221923828 L540.7264404296875,53.08024215698242 L538.9552612304688,54.4483642578125 L537.1348876953125,55.642391204833984 L535.392333984375,56.561363220214844 L533.8543701171875,57.126068115234375 L532.6471557617188,57.337100982666016 L531.8318481445312,57.24137496948242 L531.4046630859375,56.931636810302734 L531.2850952148438,56.492225646972656 L531.396728515625,55.99735641479492 L531.6994018554688,55.524696350097656 L532.1878051757812,55.15855407714844 L532.8521728515625,54.96908950805664 L533.6748657226562,55.027034759521484 L534.5949096679688,55.375877380371094 L535.5374145507812,56.04361343383789 L536.4550170898438,57.05349349975586 L537.2973022460938,58.37919235229492 L538.03564453125,59.947452545166016 L538.6806640625,61.65509033203125 L539.2588500976562,63.37448501586914 L539.792724609375,64.97628021240234 L540.3182373046875,66.3493881225586 L540.8253173828125,67.40562438964844 L541.2926025390625,68.10395050048828 L541.68603515625,68.43929290771484 L541.9965209960938,68.4626693725586 L542.2244262695312,68.25254821777344 L542.4327392578125,67.84030151367188 L542.6756591796875,67.2730941772461 L543.0045166015625,66.60580444335938 L543.32421875,66.01473999023438 L543.56494140625,65.6177978515625 M552.6815185546875,56.48994064331055 L552.6299438476562,56.16038131713867 L552.532958984375,55.68084716796875 L552.359619140625,55.16157150268555 L552.0680541992188,54.774085998535156 L551.5887451171875,54.59077072143555 L550.8592529296875,54.67047119140625 L549.873046875,55.06487274169922 L548.6920166015625,55.85512924194336 L547.410400390625,57.08613204956055 L546.15185546875,58.740814208984375 L545.049560546875,60.73314666748047 L544.2130126953125,62.868629455566406 L543.7581787109375,64.90921020507812 L543.7503051757812,66.62409210205078 L544.19091796875,67.83877563476562 L545.0233154296875,68.46434783935547 L546.1649169921875,68.4814224243164 L547.49951171875,67.89457702636719 L548.9283447265625,66.75621795654297 L550.3308715820312,65.16157531738281 L551.5971069335938,63.253238677978516 L552.6407470703125,61.22101974487305 L553.421875,59.25361633300781 L553.9403076171875,57.50143051147461 L554.2437744140625,56.066558837890625 L554.3887939453125,54.99261474609375 L554.4298706054688,54.27458190917969 L554.4159545898438,53.89847183227539 L554.3812255859375,53.845462799072266 L554.3638916015625,54.08869934082031 L554.392333984375,54.57368087768555 L554.5068969726562,55.19649124145508 L554.75048828125,55.81337356567383 L555.179443359375,56.28071594238281 L555.841552734375,56.50425720214844 L556.7639770507812,56.46003723144531 L557.8971557617188,56.180419921875 L559.177734375,55.73594665527344 L560.499267578125,55.21987533569336 L561.7565307617188,54.72099304199219 L562.834228515625,54.327022552490234 L563.6527709960938,54.08189392089844 L564.1580810546875,53.982460021972656 L564.3701171875,53.97332763671875 L564.3160400390625,53.99041748046875 L564.0254516601562,53.98233413696289 L563.4880981445312,53.954132080078125 L562.70947265625,53.943359375 L561.688720703125,54.05773162841797 L560.4515991210938,54.424617767333984 L559.0338745117188,55.19058609008789 L557.49609375,56.45314407348633 L555.947509765625,58.21998596191406 L554.5523071289062,60.353668212890625 L553.4681396484375,62.605960845947266 L552.8116455078125,64.67996215820312 L552.6077270507812,66.3270034790039 L552.816162109375,67.39082336425781 L553.3787231445312,67.81327819824219 L554.2499389648438,67.5807876586914 L555.3939819335938,66.70062255859375 L556.749755859375,65.24003601074219 L558.2131958007812,63.340267181396484 L559.668701171875,61.229209899902344 L560.988037109375,59.168148040771484 L562.0743408203125,57.384361267089844 L562.8814697265625,56.01179504394531 L563.4036254882812,55.0678596496582 L563.669189453125,54.525489807128906 L563.7237548828125,54.381832122802734 L563.5958251953125,54.68671417236328 L563.2960815429688,55.52586364746094 L562.8554077148438,56.93071746826172 L562.3353271484375,58.77758026123047 L561.8143310546875,60.87323760986328 L561.3746337890625,62.99482345581055 L561.0762939453125,64.92425537109375 L560.93603515625,66.51073455810547 L560.9082641601562,67.58734893798828 L560.93603515625,68.1465835571289 M571.6180419921875,56.610538482666016 L571.557861328125,56.36260986328125 L571.439697265625,56.00473403930664 L571.247802734375,55.61970138549805 L570.964599609375,55.33098602294922 L570.5555419921875,55.167354583740234 L569.962158203125,55.17157745361328 L569.1760864257812,55.3948860168457 L568.2196044921875,55.92205810546875 L567.152587890625,56.836082458496094 L566.0548095703125,58.17334747314453 L565.0234985351562,59.87403106689453 L564.153564453125,61.78428268432617 L563.55078125,63.67363357543945 L563.2887573242188,65.30586242675781 L563.3981323242188,66.50262451171875 L563.8653564453125,67.16738891601562 L564.656494140625,67.24188232421875 L565.7252197265625,66.68973541259766 L567.001953125,65.50701904296875 L568.4044189453125,63.756805419921875 L569.8361206054688,61.56312561035156 L571.2158203125,59.1002082824707 L572.4951782226562,56.5396728515625 L573.657958984375,54.03044128417969 L574.6947631835938,51.72380447387695 L575.5877075195312,49.78366470336914 L576.3095092773438,48.299354553222656 L576.831298828125,47.30280303955078 L577.1143798828125,46.80058288574219 L577.1392822265625,46.80552673339844 L576.8895263671875,47.39356231689453 L576.3511962890625,48.67849349975586 L575.5745849609375,50.655094146728516 L574.6485595703125,53.19538497924805 L573.670654296875,56.08240509033203 L572.7648315429688,59.05405807495117 L572.0206298828125,61.88200378417969 L571.4951171875,64.40387725830078 L571.2357788085938,66.51607513427734 L571.2389526367188,68.12568664550781 L571.4623413085938,69.17691802978516 L571.7506103515625,69.72434997558594 L571.9795532226562,69.9092025756836 " fill="none" stroke="black" stroke-linecap="round" stroke-width="1" /></svg>