<?xml version="1.0" encoding="utf-8" ?>
<svg baseProfile="full" height="100%" version="1.1" viewBox="0,0,1000,120" width="100%" xmlns="http://www.w3.org/2000/svg" xmlns:ev="http://www.w3.org/2001/xml-events" xmlns:xlink="http://www.w3.org/1999/xlink"><defs /><rect fill="white" height="120" width="1000" x="0" y="0" /><path d="M0,0 M394.4002990722656,49.90811538696289 L394.4350280761719,49.87938690185547 L394.5451354980469,49.95639419555664 L394.7364807128906,50.303489685058594 L394.9598083496094,51.094581604003906 L395.12310791015625,52.41736602783203 L395.1426086425781,54.230411529541016 L394.9964294433594,56.41294479370117 L394.72100830078125,58.80815505981445 L394.3773193359375,61.27654266357422 L394.0318603515625,63.71623229980469 L393.736328125,66.03794860839844 L393.505859375,68.13529968261719 L393.35235595703125,69.89128875732422 L393.2750244140625,71.21084594726562 L393.2469787597656,72.02266693115234 L393.2468566894531,72.40076446533203 M399.27093505859375,56.097076416015625 L399.38360595703125,55.89181900024414 L399.5179443359375,55.73762893676758 L399.6151123046875,55.86605453491211 L399.5869140625,56.551429748535156 L399.4053955078125,57.89845657348633 L399.06158447265625,59.86406326293945 L398.6098327636719,62.24595642089844 L398.1130676269531,64.77651977539062 L397.6710510253906,67.14849853515625 L397.3417053222656,69.10960388183594 L397.1464538574219,70.5408706665039 L397.07769775390625,71.4269027709961 L397.10760498046875,71.76190948486328 L397.2217712402344,71.50057220458984 L397.454833984375,70.53548431396484 L397.8549499511719,68.8150634765625 L398.4791259765625,66.49130249023438 L399.3671569824219,63.879127502441406 L400.50994873046875,61.326663970947266 L401.8487854003906,59.11006546020508 L403.2760009765625,57.34965133666992 L404.6736755371094,56.09729766845703 L405.9098205566406,55.41276931762695 L406.879150390625,55.36222457885742 L407.53125,55.998897552490234 L407.8531799316406,57.320682525634766 L407.8589782714844,59.198204040527344 L407.62261962890625,61.424293518066406 L407.2443542480469,63.74958419799805 L406.8344421386719,65.92567443847656 L406.4959411621094,67.78148651123047 L406.3045349121094,69.16825103759766 L406.27178955078125,69.99589538574219 L406.37103271484375,70.271240234375 L406.51519775390625,70.20492553710938 L406.6326904296875,70.01622009277344 M416.03253173828125,57.022239685058594 L416.0517578125,56.70185852050781 L416.03289794921875,56.25133514404297 L415.92376708984375,55.79844665527344 L415.67169189453125,55.51207733154297 L415.24688720703125,55.4325065612793 L414.64007568359375,55.6026611328125 L413.8702087402344,56.06611251831055 L412.97235107421875,56.922542572021484 L412.0149230957031,58.27121353149414 L411.0824890136719,60.12352752685547 L410.2576904296875,62.36600112915039 L409.6057434082031,64.7520980834961 L409.1823425292969,66.96318054199219 L409.00823974609375,68.73333740234375 L409.0841064453125,69.91987609863281 L409.390625,70.4839859008789 L409.9002990722656,70.41838073730469 L410.574462890625,69.6718521118164 L411.39349365234375,68.19763946533203 L412.32696533203125,66.04796600341797 L413.33990478515625,63.408050537109375 L414.3880920410156,60.56678009033203 L415.427978515625,57.81868362426758 L416.3909606933594,55.3969841003418 L417.2099609375,53.453243255615234 L417.8399353027344,52.04098892211914 L418.2551574707031,51.159446716308594 L418.4532165527344,50.822959899902344 L418.461669921875,51.08075714111328 L418.282470703125,52.0440673828125 L417.91412353515625,53.78129577636719 L417.41607666015625,56.18910598754883 L416.8566589355469,59.01750183105469 L416.3331298828125,61.946754455566406 L415.9429016113281,64.66374969482422 L415.72821044921875,66.94410705566406 L415.694091796875,68.67362976074219 L415.8392028808594,69.80298614501953 L416.1300354003906,70.32532501220703 L416.5560302734375,70.2174072265625 L417.11700439453125,69.435546875 L417.8096008300781,67.95672607421875 L418.63909912109375,65.9024887084961 L419.59356689453125,63.53511047363281 L420.63800048828125,61.20389938354492 L421.6869201660156,59.1890754699707 L422.6460876464844,57.65959548950195 L423.4180908203125,56.70168685913086 L423.93487548828125,56.410648345947266 L424.1754455566406,56.88148880004883 L424.1750793457031,58.1734504699707 L423.9469909667969,60.17160415649414 L423.5694274902344,62.585052490234375 L423.13690185546875,65.04070281982422 L422.7419738769531,67.22022247314453 L422.4637451171875,68.85118865966797 L422.341796875,69.81207275390625 L422.3338623046875,70.10655975341797 L422.3805236816406,69.9918441772461 L422.4297790527344,69.74068450927734 M423.60162353515625,50.63037872314453 L423.6089172363281,50.52900314331055 L423.6185302734375,50.41988754272461 L423.6270446777344,50.336570739746094 L423.6310119628906,50.31258773803711 M428.4495849609375,53.93234634399414 L428.5123291015625,54.20201873779297 L428.61590576171875,54.81285858154297 L428.7322692871094,55.855506896972656 L428.8192138671875,57.3220329284668 L428.84259033203125,59.15657424926758 L428.7928161621094,61.25550842285156 L428.7148132324219,63.468711853027344 L428.6648864746094,65.57913208007812 L428.6831359863281,67.3664321899414 L428.80072021484375,68.69132995605469 L428.98382568359375,69.5033187866211 L429.2001953125,69.82000732421875 L429.4592590332031,69.6424789428711 L429.8072204589844,68.88554382324219 L430.31500244140625,67.47886657714844 L431.04608154296875,65.49738311767578 L431.992919921875,63.15077590942383 L433.10223388671875,60.71096420288086 L434.2880859375,58.409942626953125 L435.48138427734375,56.38131332397461 L436.6156005859375,54.70983123779297 L437.6082763671875,53.43706130981445 L438.3957824707031,52.599178314208984 L438.91400146484375,52.23923110961914 L439.1209716796875,52.431419372558594 L439.03271484375,53.28863525390625 L438.68414306640625,54.88771438598633 L438.1334228515625,57.11554718017578 L437.50994873046875,59.711097717285156 L436.9471435546875,62.3335075378418 L436.54180908203125,64.68262481689453 L436.3584899902344,66.53113555908203 L436.3788757324219,67.7691879272461 L436.53643798828125,68.3715591430664 L436.7219543457031,68.51931762695312 L436.86407470703125,68.44078063964844 M439.9528503417969,49.15436553955078 L439.962158203125,49.092411041259766 L440.0021667480469,49.048240661621094 L440.0561218261719,49.032325744628906 L440.10736083984375,49.05514144897461 M448.7450256347656,54.78007125854492 L448.65826416015625,54.47707748413086 L448.43280029296875,54.005592346191406 L448.00311279296875,53.502342224121094 L447.32415771484375,53.22156524658203 L446.38909912109375,53.370155334472656 L445.2259826660156,54.11920166015625 L443.91796875,55.53390121459961 L442.609375,57.55717468261719 L441.4543151855469,59.99097442626953 L440.5880126953125,62.52397537231445 L440.10345458984375,64.82678985595703 L440.019287109375,66.6349868774414 L440.3167724609375,67.79393005371094 L440.9509582519531,68.25015258789062 L441.8531188964844,67.98008728027344 L442.9457092285156,66.95622253417969 L444.1434326171875,65.19596862792969 L445.3631591796875,62.8077392578125 L446.5577087402344,60.01137161254883 L447.6824645996094,57.10099792480469 L448.6935729980469,54.38962936401367 L449.5369567871094,52.11254119873047 L450.1755676269531,50.39614486694336 L450.5852966308594,49.282108306884766 L450.77386474609375,48.78839874267578 L450.74456787109375,48.94736099243164 L450.4965515136719,49.846553802490234 L450.0332946777344,51.53172302246094 L449.4132080078125,53.89281463623047 L448.72216796875,56.68597412109375 L448.062744140625,59.59461975097656 L447.53009033203125,62.29241180419922 L447.1865539550781,64.54376983642578 L447.05401611328125,66.22270965576172 L447.1336669921875,67.24950408935547 L447.41961669921875,67.59574890136719 L447.9013977050781,67.24702453613281 L448.589599609375,66.18479919433594 L449.4918518066406,64.4671401977539 L450.59051513671875,62.275875091552734 L451.8251953125,59.90390396118164 L453.07940673828125,57.68651580810547 L454.2101745605469,55.88124465942383 L455.09124755859375,54.619789123535156 L455.6407165527344,53.974510192871094 L455.83172607421875,53.99443054199219 L455.69317626953125,54.75091552734375 L455.2626647949219,56.26000213623047 L454.63214111328125,58.367950439453125 L453.9273681640625,60.74150848388672 L453.3055725097656,62.98947525024414 L452.902099609375,64.79070281982422 L452.7975158691406,65.9959945678711 L452.9891662597656,66.59021759033203 L453.44970703125,66.58606719970703 L454.1487731933594,65.94971466064453 L455.0869140625,64.65206146240234 L456.25457763671875,62.780113220214844 L457.60693359375,60.59267807006836 L459.0157470703125,58.4630012512207 L460.30908203125,56.72218322753906 L461.3276062011719,55.54691696166992 L461.9753723144531,54.982208251953125 L462.2241516113281,55.042762756347656 L462.11480712890625,55.77283477783203 L461.696044921875,57.196983337402344 L461.0559997558594,59.179100036621094 L460.33941650390625,61.4181022644043 L459.70172119140625,63.53423309326172 L459.26263427734375,65.23330688476562 L459.0484619140625,66.31773376464844 L458.99114990234375,66.84867858886719 M468.84039306640625,55.233177185058594 L469.0560302734375,54.89281463623047 L469.39862060546875,54.421875 L469.8060302734375,53.946250915527344 L470.16796875,53.615509033203125 L470.4185791015625,53.39255142211914 L470.52166748046875,53.21089172363281 L470.47247314453125,53.013938903808594 L470.2449645996094,52.818641662597656 L469.8169860839844,52.71096420288086 L469.175048828125,52.8153190612793 L468.2980651855469,53.26667785644531 L467.2134094238281,54.20256042480469 L466.0086364746094,55.69098663330078 L464.8188781738281,57.67797088623047 L463.8111572265625,59.94993209838867 L463.1295166015625,62.187625885009766 L462.8331604003906,64.06105041503906 L462.9222106933594,65.3502197265625 L463.345458984375,65.95372009277344 L464.0494384765625,65.86727142333984 L464.9947509765625,65.10249328613281 L466.13262939453125,63.695556640625 L467.39117431640625,61.7465705871582 L468.68304443359375,59.50985336303711 L469.8746643066406,57.31685256958008 L470.85675048828125,55.48134994506836 L471.55218505859375,54.216819763183594 L471.916015625,53.6289176940918 L471.96722412109375,53.74595642089844 L471.75921630859375,54.601165771484375 L471.35015869140625,56.143001556396484 L470.8437194824219,58.179847717285156 L470.355224609375,60.42404556274414 L469.9914855957031,62.57444763183594 L469.8302917480469,64.40969848632812 L469.9131164550781,65.7591781616211 L470.2076416015625,66.53650665283203 L470.6433410644531,66.73091125488281 L471.0509033203125,66.57319641113281 L471.3291015625,66.30854034423828 M477.3726501464844,45.0 L477.4001770019531,45.17108917236328 L477.41876220703125,45.70096206665039 L477.3943176269531,46.77332305908203 L477.2775573730469,48.46243667602539 L477.05224609375,50.72784423828125 L476.7033996582031,53.428253173828125 L476.2671203613281,56.36747360229492 L475.8110656738281,59.335628509521484 L475.4143371582031,62.12767791748047 L475.1385498046875,64.55579376220703 L475.00140380859375,66.51437377929688 L474.9803161621094,67.8769760131836 L475.0497741699219,68.59638214111328 L475.1783142089844,68.71240997314453 L475.3069763183594,68.49443054199219 L475.4042663574219,68.2015151977539 M481.478515625,55.7288932800293 L482.01873779296875,55.60443878173828 L483.0795593261719,55.39667510986328 L484.64117431640625,55.13404083251953 L486.493896484375,54.86647033691406 L488.3871154785156,54.612648010253906 L490.09527587890625,54.3901252746582 L491.3258056640625,54.226070404052734 L492.01275634765625,54.128726959228516 M504.044921875,48.18370819091797 L503.978515625,47.793785095214844 L503.85205078125,47.205684661865234 L503.6505126953125,46.551185607910156 L503.34320068359375,46.03801727294922 L502.8899841308594,45.747196197509766 L502.2723388671875,45.74314498901367 L501.51885986328125,46.05682373046875 L500.68701171875,46.7298469543457 L499.8690490722656,47.78606033325195 L499.13055419921875,49.21648406982422 L498.5395202636719,50.98558044433594 L498.14239501953125,53.03396987915039 L497.9705810546875,55.28375244140625 L498.0145568847656,57.6354866027832 L498.24053955078125,59.97623825073242 L498.56781005859375,62.186622619628906 L498.9138488769531,64.15933990478516 L499.1865234375,65.81818389892578 L499.3149719238281,67.13872528076172 L499.2471923828125,68.14115905761719 L498.9507751464844,68.86500549316406 L498.41241455078125,69.33770751953125 L497.65985107421875,69.58361053466797 L496.74615478515625,69.5936279296875 L495.7781982421875,69.38134002685547 L494.884521484375,69.00166320800781 L494.2330627441406,68.61820983886719 L493.871337890625,68.34156799316406 M508.69512939453125,57.96072006225586 L508.67352294921875,57.67638397216797 L508.58184814453125,57.207698822021484 L508.3797607421875,56.625694274902344 L508.04241943359375,56.088619232177734 L507.57305908203125,55.715576171875 L506.96246337890625,55.633460998535156 L506.21636962890625,55.95538330078125 L505.3602294921875,56.78881072998047 L504.4365234375,58.17247009277344 L503.52008056640625,60.0421257019043 L502.70733642578125,62.21839141845703 L502.0940856933594,64.42237854003906 L501.7651672363281,66.35821533203125 L501.761474609375,67.79690551757812 L502.08294677734375,68.60826873779297 L502.6933288574219,68.75032043457031 L503.5473327636719,68.2281265258789 L504.56280517578125,67.06342315673828 L505.6517028808594,65.35201263427734 L506.71636962890625,63.29299545288086 L507.6895751953125,61.18029022216797 L508.51739501953125,59.31481170654297 L509.1927490234375,57.8980827331543 L509.70489501953125,56.971839904785156 L510.0705261230469,56.471519470214844 L510.3327941894531,56.286834716796875 L510.5662841796875,56.31606674194336 L510.8412780761719,56.46549987792969 L511.23248291015625,56.61943054199219 L511.7781982421875,56.63277053833008 L512.4799194335938,56.376502990722656 L513.3175048828125,55.78700256347656 L514.2366333007812,54.87156295776367 L515.1498413085938,53.70547103881836 L515.9776611328125,52.40902328491211 L516.6416625976562,51.12023162841797 L517.1060791015625,49.97146224975586 L517.374755859375,49.06929016113281 L517.453369140625,48.48519515991211 L517.32177734375,48.276084899902344 L516.964599609375,48.513755798339844 L516.3642578125,49.29624938964844 L515.5646362304688,50.68722152709961 L514.6543579101562,52.66035461425781 L513.7308349609375,55.10470962524414 L512.8685302734375,57.83377456665039 L512.14501953125,60.628761291503906 L511.63116455078125,63.28282928466797 L511.40771484375,65.60921478271484 L511.557861328125,67.45665740966797 L512.1212768554688,68.72431945800781 L513.0823364257812,69.34922790527344 L514.3991088867188,69.30028533935547 L515.9827270507812,68.56722259521484 L517.718505859375,67.19898223876953 L519.478515625,65.32670593261719 L521.11376953125,63.15496826171875 L522.47900390625,60.94463348388672 L523.4716796875,58.945823669433594 L524.0348510742188,57.32659912109375 L524.1621704101562,56.18720245361328 L523.8771362304688,55.587032318115234 L523.2130126953125,55.579071044921875 L522.221435546875,56.245155334472656 L520.9953002929688,57.62364959716797 L519.7056884765625,59.62220001220703 L518.5670166015625,62.00254821777344 L517.79443359375,64.43020629882812 L517.547607421875,66.57715606689453 L517.8938598632812,68.22994995117188 L518.7696533203125,69.3134765625 L520.1110229492188,69.78488159179688 L521.7637939453125,69.6810531616211 L523.541748046875,69.09915161132812 L525.00634765625,68.39496612548828 L525.9375,67.83863830566406 M541.0770263671875,48.664878845214844 L541.077392578125,48.628684997558594 L541.0601806640625,48.80131912231445 L541.005859375,49.40538024902344 L540.8978271484375,50.62407684326172 L540.7306518554688,52.45061111450195 L540.5184936523438,54.76612854003906 L540.2684326171875,57.37327194213867 L540.0015258789062,60.07603454589844 L539.7345581054688,62.66211700439453 L539.49267578125,64.92333984375 L539.2986450195312,66.71477508544922 L539.1658935546875,67.86532592773438 L539.080322265625,68.306884765625 L539.0255126953125,68.11248779296875 L538.9884033203125,67.63072204589844 L538.9646606445312,67.16145324707031 M538.7689208984375,49.949058532714844 L539.1851196289062,49.261531829833984 L539.9605102539062,48.28211212158203 L541.0838623046875,47.25916290283203 L542.4093017578125,46.56889343261719 L543.840087890625,46.3106689453125 L545.2457885742188,46.507179260253906 L546.5087280273438,47.08245849609375 L547.5079345703125,47.9889030456543 L548.1246948242188,49.15215301513672 L548.2426147460938,50.50846481323242 L547.8018798828125,52.006675720214844 L546.8182983398438,53.58554458618164 L545.4146118164062,55.155120849609375 L543.8175048828125,56.6172981262207 L542.2642822265625,57.88315963745117 L540.9794921875,58.84775924682617 L540.106689453125,59.45341110229492 L539.6859741210938,59.68828201293945 L539.5870361328125,59.67744064331055 L539.6500854492188,59.56820297241211 M549.8258666992188,54.131256103515625 L549.7901611328125,54.49042510986328 L549.6729125976562,55.31010437011719 L549.432861328125,56.691585540771484 L549.04931640625,58.57421112060547 L548.5545043945312,60.81550979614258 L548.004150390625,63.1940803527832 L547.4615478515625,65.44041442871094 L546.9946899414062,67.3210220336914 L546.64892578125,68.69844818115234 L546.4373168945312,69.525634765625 L546.3629150390625,69.79884338378906 L546.4111328125,69.50498962402344 L546.5818481445312,68.574951171875 L546.8966674804688,67.01766967773438 L547.3807373046875,65.0050277709961 L548.0514526367188,62.808006286621094 L548.8958129882812,60.695560455322266 L549.8902587890625,58.85914993286133 L551.0018310546875,57.35960388183594 L552.2172241210938,56.22771072387695 L553.4801635742188,55.4827880859375 L554.7108154296875,55.0980110168457 L555.6658325195312,54.97126007080078 L556.2424926757812,54.97972106933594 M560.736083984375,56.18253707885742 L560.638427734375,56.010101318359375 L560.4260864257812,55.78050994873047 L560.0391845703125,55.61349105834961 L559.425048828125,55.719322204589844 L558.5516357421875,56.27825927734375 L557.4640502929688,57.419395446777344 L556.2913208007812,59.15260314941406 L555.2183837890625,61.33226013183594 L554.4176635742188,63.67094421386719 L553.98486328125,65.83212280273438 L553.9447021484375,67.5412826538086 L554.2559814453125,68.64799499511719 L554.8399658203125,69.12079620361328 L555.6198120117188,68.9801254272461 L556.5261840820312,68.2427978515625 L557.4837646484375,66.93635559082031 L558.43115234375,65.16825866699219 L559.328369140625,63.14359664916992 L560.1442260742188,61.134063720703125 L560.8778076171875,59.38935852050781 L561.5401611328125,58.0532341003418 L562.1458129882812,57.1527099609375 L562.7139892578125,56.65849304199219 L563.2705688476562,56.53035354614258 L563.8067626953125,56.76676940917969 L564.294677734375,57.38019561767578 L564.6902465820312,58.37278747558594 L564.94482421875,59.70335388183594 L565.0386352539062,61.30519104003906 L564.9791870117188,63.10307693481445 L564.7859497070312,65.0436782836914 L564.5039672851562,67.07820892333984 L564.1875,69.16041564941406 L563.8773193359375,71.20299530029297 L563.619873046875,73.0765151977539 L563.420166015625,74.6313247680664 L563.2764892578125,75.77129364013672 L563.1856689453125,76.47309875488281 L563.142333984375,76.78506469726562 L563.1302490234375,76.72351837158203 L563.1443481445312,76.23104858398438 L563.1641235351562,75.18619537353516 L563.2047729492188,73.54862213134766 L563.3038330078125,71.4085693359375 L563.516845703125,68.98734283447266 L563.89208984375,66.52735900878906 L564.471923828125,64.21479797363281 L565.2804565429688,62.144866943359375 L566.3056640625,60.38238525390625 L567.4960327148438,58.98887634277344 L568.752685546875,58.034515380859375 L569.949951171875,57.58586502075195 L570.9645385742188,57.675048828125 L571.7093505859375,58.29328155517578 L572.1017456054688,59.367671966552734 L572.0984497070312,60.77669143676758 L571.6679077148438,62.35237503051758 L570.818603515625,63.93016815185547 L569.6050415039062,65.36814880371094 L568.1395263671875,66.56037139892578 L566.5808715820312,67.44224548339844 L565.1246337890625,67.99845123291016 L563.9238891601562,68.23731994628906 L563.1500244140625,68.13045501708984 L562.8880615234375,67.68521118164062 L563.1185913085938,66.92681121826172 L563.5639038085938,66.14924621582031 L563.9774169921875,65.5734634399414 M575.4995727539062,56.867454528808594 L575.492919921875,57.06080627441406 L575.4219970703125,57.58826446533203 L575.25634765625,58.57275390625 L574.9810791015625,60.0032958984375 L574.63427734375,61.7520637512207 L574.252685546875,63.627227783203125 L573.882080078125,65.39482116699219 L573.5677490234375,66.86257934570312 L573.34619140625,67.93179321289062 L573.2177124023438,68.56304931640625 L573.179443359375,68.7469711303711 L573.2183227539062,68.4661636352539 L573.3516845703125,67.6668701171875 L573.62451171875,66.35214233398438 L574.0748291015625,64.65956115722656 L574.7164306640625,62.82271957397461 L575.5452270507812,61.06423568725586 L576.538818359375,59.558021545410156 L577.6505126953125,58.38249588012695 L578.8084716796875,57.55390548706055 L579.9268798828125,57.06210708618164 L580.9293823242188,56.88595962524414 L581.7647094726562,56.99052429199219 L582.4071655273438,57.37861251831055 L582.8239135742188,58.08362579345703 L582.9754638671875,59.149566650390625 L582.8507080078125,60.586605072021484 L582.4839477539062,62.335960388183594 L581.9749145507812,64.26155853271484 L581.45947265625,66.16377258300781 L581.0503540039062,67.8521728515625 L580.8175048828125,69.0931625366211 L580.7728271484375,69.74403381347656 L580.8746337890625,69.77959442138672 L581.0227661132812,69.47954559326172 L581.1447143554688,69.11953735351562 M582.86767578125,53.689327239990234 L582.88525390625,53.55345153808594 L582.9264526367188,53.4133186340332 L582.9752197265625,53.311283111572266 L583.0155029296875,53.2896842956543 M584.73486328125,63.610435485839844 L585.1991577148438,63.33245086669922 L586.0255126953125,62.74058532714844 L587.14306640625,61.81467056274414 L588.3482666015625,60.654823303222656 L589.4863891601562,59.398231506347656 L590.4199829101562,58.18070983886719 L591.073974609375,57.11957550048828 L591.4032592773438,56.27812576293945 L591.3882446289062,55.712772369384766 L591.036376953125,55.484230041503906 L590.35205078125,55.67965316772461 L589.3773193359375,56.39585876464844 L588.2216796875,57.68868637084961 L587.052490234375,59.499107360839844 L586.0711669921875,61.640018463134766 L585.4415283203125,63.83386993408203 L585.2531127929688,65.7974624633789 L585.5106201171875,67.32270812988281 L586.15576171875,68.3124771118164 L587.1444091796875,68.65877532958984 L588.3989868164062,68.35052490234375 L589.7992553710938,67.4601821899414 L590.9857788085938,66.44387817382812 L591.7550659179688,65.65397644042969 M598.380126953125,49.25011444091797 L598.4005126953125,49.15632629394531 L598.4046020507812,49.11249542236328 L598.3477172851562,49.283016204833984 L598.1627807617188,49.87718200683594 L597.800537109375,51.02127456665039 L597.27294921875,52.70261001586914 L596.6429443359375,54.796443939208984 L596.0057373046875,57.13520812988281 L595.4611206054688,59.531394958496094 L595.0680541992188,61.83335876464844 L594.8467407226562,63.91831588745117 L594.7857666015625,65.62613677978516 L594.8455810546875,66.81800079345703 L594.9734497070312,67.4400634765625 L595.0986328125,67.6236343383789 L595.180908203125,67.57267761230469 M593.4028930664062,59.01715850830078 L593.471923828125,58.953575134277344 L593.7841796875,58.819847106933594 L594.47705078125,58.5875244140625 L595.6158447265625,58.24321746826172 L597.13232421875,57.78044128417969 L598.8793334960938,57.2209587097168 L600.6825561523438,56.606666564941406 L602.3738403320312,56.00849151611328 L603.806396484375,55.480072021484375 L604.8713989257812,55.05253219604492 L605.4863891601562,54.74937438964844 L605.6069946289062,54.62057876586914 L605.2299194335938,54.749759674072266 L604.3668212890625,55.273887634277344 L603.1226806640625,56.31385803222656 L601.6701049804688,57.911529541015625 L600.2384643554688,59.97134017944336 L599.0619506835938,62.25248336791992 L598.3008422851562,64.41444396972656 L598.0205078125,66.1546859741211 L598.2164306640625,67.28202819824219 L598.813720703125,67.74661254882812 L599.7161254882812,67.57893371582031 L600.80908203125,66.82457733154297 L601.9502563476562,65.53073120117188 L603.034423828125,63.81919860839844 L603.987548828125,61.896480560302734 L604.7691650390625,60.02223587036133 L605.3824462890625,58.416046142578125 L605.8553466796875,57.1868896484375 L606.2242431640625,56.31918716430664 L606.556640625,55.749881744384766 L606.9185791015625,55.415592193603516 L607.3548583984375,55.29304504394531 L607.8779296875,55.39228439331055 L608.4520874023438,55.74919128417969 L609.010009765625,56.396888732910156 L609.4801025390625,57.36185073852539 L609.793212890625,58.639892578125 L609.9010620117188,60.193153381347656 L609.7969970703125,61.92535400390625 L609.518798828125,63.66810607910156 L609.1598510742188,65.21936798095703 L608.8195190429688,66.41839599609375 L608.5783081054688,67.16586303710938 L608.4599609375,67.4236068725586 L608.462158203125,67.16905212402344 L608.5848388671875,66.36076354980469 L608.8741455078125,65.00895690917969 L609.3853759765625,63.25599670410156 L610.1729736328125,61.333656311035156 L611.24169921875,59.4821662902832 L612.553466796875,57.868194580078125 L614.0289306640625,56.55461120605469 L615.5775756835938,55.539093017578125 L617.1011962890625,54.81917953491211 L618.5223999023438,54.38387680053711 L619.5987548828125,54.17820358276367 L620.2451171875,54.1203727722168 " fill="none" stroke="black" stroke-linecap="round" stroke-width="1" /></svg>