<?xml version="1.0" encoding="utf-8" ?>
<svg baseProfile="full" height="100%" version="1.1" viewBox="0,0,1000,120" width="100%" xmlns="http://www.w3.org/2000/svg" xmlns:ev="http://www.w3.org/2001/xml-events" xmlns:xlink="http://www.w3.org/1999/xlink"><defs /><rect fill="white" height="120" width="1000" x="0" y="0" /><path d="M0,0 M400.62060546875,47.896949768066406 L400.5437316894531,47.57419967651367 L400.3822021484375,47.07997512817383 L400.1147155761719,46.50090026855469 L399.7287292480469,45.97620391845703 L399.2032775878906,45.53969192504883 L398.5306701660156,45.215145111083984 L397.70904541015625,45.02110290527344 L396.7553405761719,45.0 L395.696533203125,45.20288848876953 L394.55291748046875,45.692527770996094 L393.3518981933594,46.563926696777344 L392.1310119628906,47.91561508178711 L390.9511413574219,49.818756103515625 L389.9004821777344,52.23801040649414 L389.0728759765625,55.02546310424805 L388.5406494140625,57.94137191772461 L388.3566589355469,60.71781539916992 L388.5366516113281,63.1145133972168 L389.0589599609375,64.97759246826172 L389.8790283203125,66.21952819824219 L390.9299621582031,66.81831359863281 L392.1385803222656,66.7658920288086 L393.4617004394531,66.0678482055664 L394.86688232421875,64.74348449707031 L396.3070068359375,62.86177444458008 L397.7530517578125,60.54277038574219 L399.1551513671875,57.95998764038086 L400.4826965332031,55.298789978027344 L401.7164001464844,52.76361083984375 L402.840087890625,50.53779220581055 L403.8024597167969,48.75614547729492 L404.5782165527344,47.47544479370117 L405.12689208984375,46.685264587402344 L405.455810546875,46.3648681640625 L405.57086181640625,46.55608367919922 L405.49810791015625,47.35987854003906 L405.2266540527344,48.86964416503906 L404.7876892089844,51.05558776855469 L404.2073669433594,53.739776611328125 L403.5455017089844,56.65801239013672 L402.8701171875,59.52488327026367 L402.2571716308594,62.07120895385742 L401.7538757324219,64.11205291748047 L401.4186706542969,65.54624938964844 L401.2566833496094,66.35658264160156 L401.2503967285156,66.57926940917969 L401.3974914550781,66.22325897216797 L401.71771240234375,65.22840881347656 L402.26025390625,63.59962463378906 L403.0772399902344,61.49774169921875 L404.174560546875,59.22513198852539 L405.4705505371094,57.12044143676758 L406.8376770019531,55.43507766723633 L408.1393737792969,54.276084899902344 L409.25262451171875,53.684486389160156 L410.09600830078125,53.70719909667969 L410.64654541015625,54.387718200683594 L410.8899230957031,55.710479736328125 L410.8614501953125,57.556907653808594 L410.64794921875,59.7069206237793 L410.3468017578125,61.87984085083008 L410.0614013671875,63.8146858215332 L409.8699645996094,65.34922790527344 L409.8183898925781,66.35657501220703 L409.9144287109375,66.80213928222656 L410.1402587890625,66.74708557128906 L410.3849182128906,66.44966888427734 L410.5696105957031,66.1350326538086 M416.4620361328125,54.2829475402832 L416.6546325683594,54.11107635498047 L416.8597412109375,54.039825439453125 L416.9754333496094,54.30582046508789 L416.8860168457031,55.144683837890625 L416.6046447753906,56.58413314819336 L416.18218994140625,58.48622131347656 L415.71453857421875,60.60962677001953 L415.27655029296875,62.72479248046875 L414.9478759765625,64.62159729003906 L414.75921630859375,66.1587142944336 L414.69305419921875,67.28538513183594 L414.72393798828125,67.91007995605469 L414.83843994140625,68.00511169433594 L415.0242614746094,67.6044921875 L415.21551513671875,67.01844787597656 L415.3608703613281,66.50698852539062 M418.82940673828125,47.81026840209961 L418.9695739746094,47.42121505737305 L419.1961669921875,46.90208435058594 L419.4534912109375,46.40050506591797 L419.6673583984375,46.09465789794922 L419.8138122558594,45.96595001220703 L419.91583251953125,45.96272659301758 L419.986083984375,45.9931526184082 L420.0373229980469,46.02652359008789 M421.97344970703125,52.338706970214844 L421.8973693847656,52.719444274902344 L421.77691650390625,53.54703903198242 L421.5986633300781,54.88749694824219 L421.367431640625,56.649559020996094 L421.055419921875,58.69142150878906 L420.6690673828125,60.83800506591797 L420.2467346191406,62.897335052490234 L419.8651428222656,64.69078063964844 L419.5762634277344,66.08590698242188 L419.42364501953125,67.01728057861328 L419.3957824707031,67.45994567871094 L419.4757995605469,67.40092468261719 L419.6641540527344,66.77554321289062 L419.99371337890625,65.51774597167969 L420.53094482421875,63.66557312011719 L421.3573303222656,61.402565002441406 L422.5039978027344,59.00579071044922 L423.94677734375,56.76664733886719 L425.5861511230469,54.90071105957031 L427.2752380371094,53.51936721801758 L428.85980224609375,52.67604064941406 L430.20965576171875,52.42485046386719 L431.21466064453125,52.82001495361328 L431.8111572265625,53.873558044433594 L431.98272705078125,55.518192291259766 L431.77972412109375,57.56550979614258 L431.3143005371094,59.75053024291992 L430.7573547363281,61.828704833984375 L430.2652587890625,63.60691452026367 L429.9419250488281,64.97308349609375 L429.7943420410156,65.84491729736328 L429.7646179199219,66.2755126953125 M440.4346008300781,54.4983024597168 L440.55816650390625,54.12678146362305 L440.6748046875,53.60319900512695 L440.67803955078125,53.05274200439453 L440.4442443847656,52.67351150512695 L439.9385986328125,52.55138397216797 L439.1513671875,52.77806091308594 L438.124267578125,53.41860580444336 L436.971923828125,54.55477523803711 L435.8323669433594,56.126895904541016 L434.8819885253906,57.96073913574219 L434.2770690917969,59.80681228637695 L434.1012268066406,61.401554107666016 L434.3677673339844,62.53205871582031 L435.0461730957031,63.087284088134766 L436.0320739746094,63.00328063964844 L437.2225646972656,62.284671783447266 L438.51409912109375,61.00635528564453 L439.81536865234375,59.33060836791992 L441.048095703125,57.50572967529297 L442.1326904296875,55.806182861328125 L442.9955139160156,54.45280456542969 L443.5921936035156,53.582122802734375 L443.91552734375,53.25828170776367 L444.0052490234375,53.52140426635742 L443.9117736816406,54.420223236083984 L443.66522216796875,55.96200180053711 L443.29058837890625,58.065757751464844 L442.8162536621094,60.57368850708008 L442.27044677734375,63.28801345825195 L441.68389892578125,66.03628540039062 L441.05194091796875,68.69219207763672 L440.34185791015625,71.16817474365234 L439.51177978515625,73.36841583251953 L438.5498046875,75.2008056640625 L437.4752197265625,76.59236907958984 L436.3306579589844,77.50267028808594 L435.15972900390625,77.92210388183594 L434.010009765625,77.89027404785156 L432.9269714355469,77.47259521484375 L432.0111083984375,76.67193603515625 L431.366943359375,75.54583740234375 L431.05926513671875,74.1862564086914 L431.00689697265625,72.97752380371094 L431.08135986328125,72.16241455078125 M449.4869384765625,50.1502571105957 L449.6213684082031,49.51739501953125 L449.7630615234375,48.58928298950195 L449.84356689453125,47.563499450683594 L449.7837829589844,46.7308464050293 L449.583740234375,46.1342887878418 L449.24932861328125,45.78545379638672 L448.7921142578125,45.66789627075195 L448.20501708984375,45.856990814208984 L447.513671875,46.440799713134766 L446.73956298828125,47.492706298828125 L445.9255065917969,49.063419342041016 L445.12139892578125,51.16007614135742 L444.3867492675781,53.71710968017578 L443.7816162109375,56.61330795288086 L443.3407287597656,59.67207336425781 L443.0516357421875,62.70412826538086 L442.8879699707031,65.5181655883789 L442.8125305175781,67.93795013427734 L442.8025817871094,69.84813690185547 L442.85040283203125,71.12515258789062 L442.9300537109375,71.72734069824219 L443.01495361328125,71.72998809814453 L443.07904052734375,71.4321517944336 L443.1095886230469,71.09625244140625 M441.18060302734375,58.207820892333984 L441.3903503417969,58.116573333740234 L441.8894958496094,57.90536880493164 L442.7450256347656,57.54698944091797 L443.981201171875,57.04936981201172 L445.5063781738281,56.46638870239258 L447.1787109375,55.878238677978516 L448.57659912109375,55.422157287597656 L449.4715270996094,55.153289794921875 M455.81329345703125,52.1153450012207 L455.65496826171875,51.99672317504883 L455.33355712890625,51.866310119628906 L454.80230712890625,51.83599090576172 L454.0559387207031,52.078189849853516 L453.098876953125,52.72808074951172 L452.0122375488281,53.8695068359375 L450.9237060546875,55.49363708496094 L449.997314453125,57.48133850097656 L449.3661804199219,59.60524368286133 L449.1044616699219,61.60493087768555 L449.219970703125,63.25274658203125 L449.68988037109375,64.4093017578125 L450.46337890625,65.02935028076172 L451.4678955078125,65.09764862060547 L452.6283264160156,64.60037231445312 L453.84979248046875,63.54583740234375 L455.0233154296875,62.00127410888672 L456.04315185546875,60.127628326416016 L456.82354736328125,58.155582427978516 L457.310546875,56.305931091308594 L457.50579833984375,54.73325729370117 L457.4673156738281,53.50325012207031 L457.28399658203125,52.611915588378906 L457.0613098144531,52.021949768066406 L456.9037170410156,51.690765380859375 L456.8969421386719,51.580718994140625 L457.0948791503906,51.65302276611328 L457.5390930175781,51.857200622558594 L458.2273864746094,52.12051773071289 L459.1310119628906,52.36034393310547 L460.1868591308594,52.50910186767578 L461.2933349609375,52.53602600097656 L462.3230895996094,52.45168685913086 L463.170654296875,52.29608917236328 L463.76123046875,52.109519958496094 L464.0697937011719,51.94085693359375 L464.12078857421875,51.87521743774414 L463.9366149902344,52.037437438964844 L463.535400390625,52.57023239135742 L462.94268798828125,53.58304977416992 L462.2102966308594,55.089439392089844 L461.413330078125,56.99565505981445 L460.6673889160156,59.13479232788086 L460.056396484375,61.265785217285156 L459.6440124511719,63.14516830444336 L459.4356994628906,64.59905242919922 L459.41217041015625,65.5411605834961 L459.5267333984375,65.96170043945312 L459.7483215332031,65.87866973876953 L460.0464782714844,65.25371551513672 L460.4356384277344,64.06443786621094 L460.920166015625,62.38805389404297 L461.51739501953125,60.42530059814453 L462.22216796875,58.44491195678711 L463.005615234375,56.67291259765625 L463.8331604003906,55.223663330078125 L464.6768798828125,54.12067794799805 L465.49359130859375,53.333641052246094 L466.2701416015625,52.8297233581543 L467.0016174316406,52.56856155395508 L467.6642150878906,52.4862174987793 L468.2344970703125,52.51691436767578 L468.6753845214844,52.59313201904297 L468.9524230957031,52.654457092285156 L469.0845642089844,52.67746353149414 L469.1282958984375,52.66870880126953 L469.12518310546875,52.64192199707031 L469.1150817871094,52.61469650268555 L469.13751220703125,52.570377349853516 L469.2259216308594,52.47021484375 L469.4161682128906,52.28944778442383 L469.7196350097656,52.0340576171875 L470.082275390625,51.733665466308594 L470.43701171875,51.4361572265625 L470.7278137207031,51.153934478759766 L470.9085388183594,50.87675857543945 L470.9831848144531,50.605491638183594 L470.9703369140625,50.34846496582031 L470.8861999511719,50.11939239501953 L470.7556457519531,49.9432487487793 L470.58331298828125,49.82521057128906 L470.33709716796875,49.773529052734375 L470.01220703125,49.83433532714844 L469.5824890136719,50.066829681396484 L469.0279846191406,50.53169250488281 L468.3482971191406,51.29041290283203 L467.56488037109375,52.365264892578125 L466.7154541015625,53.74296951293945 L465.88616943359375,55.368865966796875 L465.16497802734375,57.13800811767578 L464.6335144042969,58.90589904785156 L464.338623046875,60.51811218261719 L464.296630859375,61.83763885498047 L464.48687744140625,62.76800537109375 L464.8717041015625,63.23815155029297 L465.4319152832031,63.19587326049805 L466.1626281738281,62.587913513183594 L467.0494689941406,61.38990783691406 L468.0672607421875,59.65620803833008 L469.1703796386719,57.52260971069336 L470.289794921875,55.181705474853516 L471.372802734375,52.83915710449219 L472.36431884765625,50.65938949584961 L473.2156677246094,48.78541946411133 L473.8904724121094,47.31169891357422 L474.37091064453125,46.27851104736328 L474.6481018066406,45.70342254638672 L474.7212219238281,45.60914993286133 L474.56585693359375,46.03935241699219 L474.16729736328125,47.0760612487793 L473.5474853515625,48.735713958740234 L472.767333984375,50.928863525390625 L471.9278564453125,53.48273468017578 L471.14080810546875,56.17893981933594 L470.4864501953125,58.81025695800781 L470.0215759277344,61.22106170654297 L469.772705078125,63.294708251953125 L469.71405029296875,64.9483642578125 L469.7974853515625,66.14803314208984 L469.9588317871094,66.90788269042969 L470.1301574707031,67.30409240722656 L470.27197265625,67.45276641845703 L470.36419677734375,67.4764633178711 L470.4067077636719,67.46186828613281 M477.9736633300781,63.97929000854492 L478.05462646484375,64.0499038696289 L478.14263916015625,64.26988983154297 L478.1978759765625,64.71711730957031 L478.13653564453125,65.45462799072266 L477.91033935546875,66.51780700683594 L477.4675598144531,67.88997650146484 L476.81146240234375,69.50912475585938 L475.97662353515625,71.26173400878906 L475.09136962890625,72.95384979248047 L474.27117919921875,74.40693664550781 L473.677001953125,75.41287231445312 L473.34576416015625,75.94357299804688 M492.52978515625,47.9188117980957 L492.50164794921875,47.883872985839844 L492.4416198730469,47.9637565612793 L492.329345703125,48.30390167236328 L492.1484069824219,49.050174713134766 L491.8834228515625,50.25886917114258 L491.5215759277344,51.91730880737305 L491.07470703125,53.96009826660156 L490.5753479003906,56.270721435546875 L490.0691833496094,58.6860237121582 L489.6229553222656,61.010860443115234 L489.3035888671875,63.04863357543945 L489.14056396484375,64.63951110839844 L489.13946533203125,65.73355865478516 L489.2722473144531,66.37128448486328 L489.50921630859375,66.64525604248047 L489.8380126953125,66.63077545166016 L490.2708740234375,66.358154296875 L490.83331298828125,65.82762145996094 L491.5574645996094,65.09504699707031 L492.4700927734375,64.25775909423828 L493.5399475097656,63.45338439941406 L494.6759338378906,62.78553771972656 L495.60589599609375,62.341522216796875 L496.1872863769531,62.109737396240234 M504.0267639160156,55.187808990478516 L503.9466552734375,54.899105072021484 L503.76434326171875,54.48887252807617 L503.4404296875,54.0787353515625 L502.95062255859375,53.866607666015625 L502.2803955078125,53.96757125854492 L501.4380798339844,54.48423767089844 L500.4783935546875,55.47378921508789 L499.5040283203125,56.945404052734375 L498.63665771484375,58.80699920654297 L497.992431640625,60.8601188659668 L497.6461486816406,62.84098434448242 L497.61846923828125,64.50031280517578 L497.8966979980469,65.6643295288086 L498.4386291503906,66.24574279785156 L499.18316650390625,66.21625518798828 L500.0678405761719,65.57328033447266 L501.0117492675781,64.34455871582031 L501.9359130859375,62.634727478027344 L502.7859191894531,60.64994430541992 L503.5350341796875,58.644264221191406 L504.1773986816406,56.852149963378906 L504.7216491699219,55.41993713378906 L505.1915588378906,54.39968490600586 L505.60882568359375,53.804325103759766 L505.9868469238281,53.66383361816406 L506.32220458984375,54.021949768066406 L506.5731506347656,54.92145919799805 L506.6787414550781,56.32802200317383 L506.6168212890625,58.11821746826172 L506.39385986328125,60.100868225097656 L506.06402587890625,62.048954010009766 L505.701171875,63.74310302734375 L505.37646484375,65.05077362060547 L505.1364440917969,65.9075927734375 L505.01654052734375,66.29827880859375 L505.03802490234375,66.19711303710938 L505.23822021484375,65.54940032958984 L505.65399169921875,64.31737518310547 L506.330322265625,62.59535598754883 L507.2760009765625,60.601318359375 L508.4602966308594,58.614620208740234 L509.7991943359375,56.87873077392578 L511.17303466796875,55.545616149902344 L512.443603515625,54.67182159423828 L513.508544921875,54.282230377197266 L514.2945556640625,54.393707275390625 L514.779541015625,55.01123809814453 L514.961669921875,56.12445831298828 L514.859619140625,57.65929412841797 L514.5291137695312,59.46626663208008 L514.0736083984375,61.34601974487305 L513.6083984375,63.10227966308594 L513.2443237304688,64.56136322021484 L513.0311279296875,65.63558197021484 L512.9446411132812,66.28317260742188 L512.9332885742188,66.57855987548828 M523.1058349609375,57.055076599121094 L523.1422729492188,56.7505989074707 L523.12060546875,56.303977966308594 L522.953125,55.81555938720703 L522.5589599609375,55.45644760131836 L521.9108276367188,55.30912780761719 L521.033447265625,55.47357177734375 L519.9935913085938,56.031490325927734 L518.8707275390625,57.05641174316406 L517.7611083984375,58.533355712890625 L516.7672729492188,60.33235168457031 L515.987060546875,62.219669342041016 L515.4994506835938,63.941749572753906 L515.34716796875,65.28189849853516 L515.5338134765625,66.12151336669922 L516.03759765625,66.40904998779297 L516.8189697265625,66.10726165771484 L517.8428955078125,65.16482543945312 L519.05126953125,63.57957458496094 L520.374755859375,61.44488525390625 L521.734130859375,58.96372985839844 L523.0437622070312,56.40446853637695 L524.2196655273438,54.028358459472656 L525.1943969726562,52.02467346191406 L525.9285888671875,50.49618148803711 L526.4171142578125,49.473480224609375 L526.6698608398438,48.94546890258789 L526.6967163085938,48.91834259033203 L526.4940185546875,49.451194763183594 L526.06103515625,50.6205940246582 L525.4306640625,52.42112731933594 L524.677490234375,54.73936080932617 L523.9036254882812,57.35429382324219 L523.2315673828125,59.99168395996094 L522.7509765625,62.40480422973633 L522.515380859375,64.42121887207031 L522.5856323242188,65.86460876464844 L522.96630859375,66.66322326660156 L523.6121215820312,66.84656524658203 L524.2704467773438,66.67657470703125 L524.7513427734375,66.41506958007812 M533.2188110351562,55.4439811706543 L533.241943359375,55.09762954711914 L533.1978149414062,54.623291015625 L533.0169677734375,54.16740417480469 L532.6271362304688,53.947147369384766 L531.99609375,54.052825927734375 L531.1348266601562,54.58243942260742 L530.109130859375,55.58675765991211 L529.02197265625,57.092308044433594 L528.0263671875,59.0171012878418 L527.2720947265625,61.160064697265625 L526.8497924804688,63.24031448364258 L526.7941284179688,65.00001525878906 L527.0921020507812,66.24700927734375 L527.6805419921875,66.90353393554688 L528.484619140625,66.95307159423828 L529.4288330078125,66.39318084716797 L530.4263916015625,65.23979187011719 L531.3987426757812,63.5862922668457 L532.28271484375,61.61038589477539 L533.0316772460938,59.57707977294922 L533.648193359375,57.74092483520508 L534.1553344726562,56.258548736572266 L534.595458984375,55.18156433105469 L535.006103515625,54.50074768066406 L535.3984985351562,54.20973205566406 L535.7510986328125,54.35861587524414 L536.0404663085938,55.01399230957031 L536.2071533203125,56.19184112548828 L536.2147216796875,57.80744171142578 L536.0465698242188,59.68384552001953 L535.7376098632812,61.589080810546875 L535.3529052734375,63.29840087890625 L534.9930419921875,64.65882873535156 L534.7296752929688,65.5899429321289 L534.61962890625,66.04822540283203 L534.6825561523438,66.00637817382812 L534.9500732421875,65.41365051269531 L535.4532470703125,64.24345397949219 L536.2359619140625,62.60282897949219 L537.3018188476562,60.709869384765625 L538.6036376953125,58.83468246459961 L540.0346069335938,57.21629333496094 L541.4649658203125,55.9937744140625 L542.7722778320312,55.221473693847656 L543.8763427734375,54.939659118652344 L544.712646484375,55.155879974365234 L545.2592163085938,55.86016845703125 L545.5077514648438,56.995872497558594 L545.4776000976562,58.46138000488281 L545.2274169921875,60.12641525268555 L544.8441162109375,61.869686126708984 L544.4102783203125,63.56480026245117 L544.0235595703125,65.10572052001953 L543.7322998046875,66.39559173583984 L543.5552978515625,67.36335754394531 L543.4854736328125,67.98612976074219 L543.4869995117188,68.31431579589844 L543.5211181640625,68.43512725830078 L543.5606079101562,68.45079803466797 L543.5855712890625,68.43621826171875 M549.99609375,67.6407241821289 L550.0000610351562,67.67781066894531 L549.9752807617188,67.80648040771484 L549.8960571289062,68.0896987915039 L549.7298583984375,68.57826232910156 L549.4682006835938,69.29130554199219 L549.101806640625,70.21687316894531 L548.6617431640625,71.33680725097656 L548.1636352539062,72.62263488769531 L547.658447265625,73.9916763305664 L547.1889038085938,75.32705688476562 L546.8411254882812,76.35945129394531 L546.6367797851562,76.96971130371094 M564.568115234375,51.10619354248047 L564.514404296875,51.391510009765625 L564.3779296875,52.070316314697266 L564.1205444335938,53.25221252441406 L563.7293701171875,54.92533493041992 L563.2182006835938,57.00890350341797 L562.6182250976562,59.34920883178711 L561.9974975585938,61.76049041748047 L561.4556884765625,64.04924011230469 L561.0982055664062,66.04117584228516 L561.0294799804688,67.62493896484375 L561.3219604492188,68.77037811279297 L562.0091552734375,69.48738861083984 L563.0850219726562,69.81156921386719 L564.513427734375,69.77537536621094 L566.213623046875,69.4305648803711 L568.0833740234375,68.79320526123047 L569.951416015625,67.92452239990234 L571.6402587890625,66.89977264404297 L572.8656616210938,66.00536346435547 L573.5527954101562,65.40595245361328 M564.6177978515625,53.41862487792969 L564.8973388671875,53.46451950073242 L565.464111328125,53.51907730102539 L566.33447265625,53.54622268676758 L567.4137573242188,53.445884704589844 L568.5824584960938,53.16417694091797 L569.6968383789062,52.67636489868164 L570.5343627929688,52.167259216308594 L571.0208740234375,51.78448486328125 M563.950439453125,47.38741683959961 L564.0410766601562,47.51513671875 L564.3970947265625,47.66167068481445 L565.154541015625,47.742897033691406 L566.3655395507812,47.6556396484375 L567.9434204101562,47.38743209838867 L569.7125244140625,46.97854232788086 L571.4686279296875,46.51908493041992 L573.0237426757812,46.10349655151367 L574.2318115234375,45.81767272949219 L575.0341186523438,45.70460510253906 L575.4594116210938,45.714744567871094 L575.616455078125,45.77642822265625 M579.9888916015625,50.28009033203125 L580.0806884765625,50.225730895996094 L580.1962890625,50.217430114746094 L580.2637939453125,50.345489501953125 L580.1953735351562,50.709468841552734 L579.9403076171875,51.34892654418945 L579.4916381835938,52.27445602416992 L578.9064331054688,53.46138000488281 L578.2554321289062,54.85980224609375 L577.6159057617188,56.392425537109375 L577.0678100585938,57.969417572021484 L576.6566162109375,59.49798583984375 L576.4216918945312,60.900970458984375 L576.3682250976562,62.1097412109375 L576.4795532226562,63.07217788696289 L576.7315063476562,63.75020980834961 L577.1060791015625,64.12486267089844 L577.603515625,64.20355224609375 L578.2544555664062,64.00920867919922 L579.0526123046875,63.571876525878906 L579.9791259765625,62.9348258972168 L580.9749755859375,62.15012741088867 L581.9498291015625,61.27510070800781 L582.8322143554688,60.397499084472656 L583.5760498046875,59.561119079589844 L584.1484375,58.795589447021484 L584.55029296875,58.105926513671875 L584.7876586914062,57.58439636230469 L584.8915405273438,57.25973892211914 M583.663818359375,50.810997009277344 L583.6817626953125,50.79170227050781 L583.68798828125,50.92652893066406 L583.6380615234375,51.378257751464844 L583.4730224609375,52.281341552734375 L583.1495361328125,53.63040542602539 L582.666015625,55.321624755859375 L582.052978515625,57.21300506591797 L581.3927001953125,59.17261505126953 L580.7603759765625,61.09342956542969 L580.213134765625,62.90534973144531 L579.77392578125,64.54722595214844 L579.4454345703125,65.96778869628906 L579.211669921875,67.12538146972656 L579.0758056640625,67.99172973632812 L579.014892578125,68.53055572509766 L579.0028076171875,68.78840637207031 M602.9188842773438,52.318363189697266 L602.9160766601562,51.93654251098633 L602.8587646484375,51.34242248535156 L602.6978149414062,50.64733123779297 L602.3828125,50.04364776611328 L601.881591796875,49.60185241699219 L601.1658935546875,49.3990478515625 L600.2354736328125,49.49955368041992 L599.1021728515625,50.0011100769043 L597.8271484375,50.97236251831055 L596.5134887695312,52.392662048339844 L595.3090209960938,54.115699768066406 L594.3621826171875,55.91294860839844 L593.8048706054688,57.52142333984375 L593.7017211914062,58.734230041503906 L594.061279296875,59.42094802856445 L594.8333129882812,59.52703094482422 L595.94775390625,59.05328369140625 L597.29931640625,58.0550422668457 L598.767333984375,56.64479446411133 L600.2239990234375,54.9947624206543 L601.552490234375,53.334228515625 L602.6439208984375,51.877769470214844 L603.4510498046875,50.7884407043457 L603.9559326171875,50.13955307006836 L604.16357421875,49.938262939453125 L604.120849609375,50.16105651855469 L603.8826904296875,50.8320426940918 L603.4837036132812,51.96730041503906 L602.987060546875,53.55809783935547 L602.4456787109375,55.54225540161133 L601.88427734375,57.798824310302734 L601.3466186523438,60.18478012084961 L600.8653564453125,62.58084487915039 L600.4542236328125,64.8626708984375 L600.128173828125,66.89590454101562 L599.8773803710938,68.56954193115234 L599.663330078125,69.80284118652344 L599.4473876953125,70.58221435546875 L599.1906127929688,70.96184539794922 L598.88916015625,70.94367218017578 L598.57666015625,70.53510284423828 L598.3065185546875,69.78158569335938 L598.1282958984375,68.9903793334961 L598.046630859375,68.39433288574219 M611.0018310546875,50.88420867919922 L610.9727172851562,50.66934585571289 L610.84716796875,50.34855651855469 L610.56103515625,50.017845153808594 L610.0426635742188,49.85600280761719 L609.24853515625,49.99468994140625 L608.1818237304688,50.53245162963867 L606.9229736328125,51.50699234008789 L605.5970458984375,52.89599609375 L604.3687744140625,54.6046028137207 L603.36865234375,56.506591796875 L602.6819458007812,58.44977951049805 L602.3492431640625,60.2784538269043 L602.3890991210938,61.8643684387207 L602.7779541015625,63.10732650756836 L603.4694213867188,63.94198989868164 L604.40234375,64.35475158691406 L605.509521484375,64.36420440673828 L606.722412109375,64.01529693603516 L607.9735107421875,63.39692306518555 L609.1769409179688,62.58309555053711 L610.229736328125,61.67411422729492 L611.0567626953125,60.767555236816406 L611.5870361328125,60.057579040527344 L611.8463134765625,59.62339782714844 M603.4697265625,56.56111145019531 L603.9614868164062,56.50196838378906 L604.88037109375,56.32691192626953 L605.8890991210938,56.10529708862305 L606.6503295898438,55.906471252441406 M610.7276611328125,53.745079040527344 L610.974365234375,53.64252853393555 L611.5321044921875,53.45867156982422 L612.4591674804688,53.20051574707031 L613.6912231445312,52.90055847167969 L615.1064453125,52.58132553100586 L616.5603637695312,52.272769927978516 L617.931640625,52.003047943115234 L619.1329345703125,51.799781799316406 L620.1082153320312,51.6717414855957 L620.8017578125,51.613346099853516 L621.154052734375,51.62262725830078 L621.0955810546875,51.71461486816406 L620.5756225585938,51.944129943847656 L619.5729370117188,52.391075134277344 L618.1489868164062,53.1265983581543 L616.4398193359375,54.19279098510742 L614.64892578125,55.5621337890625 L612.9857788085938,57.13222885131836 L611.6519165039062,58.75516128540039 L610.7990112304688,60.257843017578125 L610.53173828125,61.47537612915039 L610.885009765625,62.29471206665039 L611.819580078125,62.6548957824707 L613.1918334960938,62.56364440917969 L614.8011474609375,62.112876892089844 L616.4080810546875,61.454307556152344 L617.7952880859375,60.749534606933594 L618.8355712890625,60.134456634521484 L619.46826171875,59.715980529785156 L619.7569580078125,59.49671936035156 " fill="none" stroke="black" stroke-linecap="round" stroke-width="1" /></svg>